<svg xmlns="http://www.w3.org/2000/svg" xmlns:xlink="http://www.w3.org/1999/xlink" width="500" zoomAndPan="magnify" viewBox="0 0 375 374.999991" height="500" preserveAspectRatio="xMidYMid meet" version="1.0"><defs><g/><clipPath id="c13cb6d14a"><path d="M 0 106.441406 L 374.941406 106.441406 L 374.941406 238.652344 L 0 238.652344 Z M 0 106.441406 " clip-rule="nonzero"/></clipPath><clipPath id="d12d5cf0e7"><path d="M 375 172.546875 L 346.875 238.652344 L 28.125 238.652344 L 0 172.546875 L 28.125 106.441406 L 346.875 106.441406 Z M 375 172.546875 " clip-rule="nonzero"/></clipPath><linearGradient x1="0.00131226" gradientTransform="matrix(0.516449, 0, 0, 0.516449, -0.000673214, 106.439577)" y1="128" x2="726.00128" gradientUnits="userSpaceOnUse" y2="128" id="9e94305343"><stop stop-opacity="1" stop-color="rgb(54.899597%, 32.199097%, 99.998474%)" offset="0"/><stop stop-opacity="1" stop-color="rgb(54.684448%, 32.365417%, 99.758911%)" offset="0.00390625"/><stop stop-opacity="1" stop-color="rgb(54.470825%, 32.533264%, 99.520874%)" offset="0.0078125"/><stop stop-opacity="1" stop-color="rgb(54.255676%, 32.699585%, 99.281311%)" offset="0.0117187"/><stop stop-opacity="1" stop-color="rgb(54.042053%, 32.865906%, 99.043274%)" offset="0.015625"/><stop stop-opacity="1" stop-color="rgb(53.826904%, 33.032227%, 98.803711%)" offset="0.0195313"/><stop stop-opacity="1" stop-color="rgb(53.613281%, 33.200073%, 98.565674%)" offset="0.0234375"/><stop stop-opacity="1" stop-color="rgb(53.398132%, 33.366394%, 98.326111%)" offset="0.0273438"/><stop stop-opacity="1" stop-color="rgb(53.184509%, 33.534241%, 98.086548%)" offset="0.03125"/><stop stop-opacity="1" stop-color="rgb(52.96936%, 33.700562%, 97.846985%)" offset="0.0351563"/><stop stop-opacity="1" stop-color="rgb(52.754211%, 33.866882%, 97.608948%)" offset="0.0390625"/><stop stop-opacity="1" stop-color="rgb(52.539062%, 34.033203%, 97.369385%)" offset="0.0429688"/><stop stop-opacity="1" stop-color="rgb(52.325439%, 34.20105%, 97.131348%)" offset="0.046875"/><stop stop-opacity="1" stop-color="rgb(52.110291%, 34.367371%, 96.891785%)" offset="0.0507812"/><stop stop-opacity="1" stop-color="rgb(51.896667%, 34.533691%, 96.652222%)" offset="0.0546875"/><stop stop-opacity="1" stop-color="rgb(51.681519%, 34.700012%, 96.412659%)" offset="0.0585938"/><stop stop-opacity="1" stop-color="rgb(51.467896%, 34.867859%, 96.174622%)" offset="0.0625"/><stop stop-opacity="1" stop-color="rgb(51.252747%, 35.03418%, 95.935059%)" offset="0.0664062"/><stop stop-opacity="1" stop-color="rgb(51.039124%, 35.2005%, 95.697021%)" offset="0.0703125"/><stop stop-opacity="1" stop-color="rgb(50.823975%, 35.366821%, 95.457458%)" offset="0.0742188"/><stop stop-opacity="1" stop-color="rgb(50.610352%, 35.534668%, 95.217896%)" offset="0.078125"/><stop stop-opacity="1" stop-color="rgb(50.395203%, 35.700989%, 94.978333%)" offset="0.0820313"/><stop stop-opacity="1" stop-color="rgb(50.18158%, 35.868835%, 94.740295%)" offset="0.0859375"/><stop stop-opacity="1" stop-color="rgb(49.966431%, 36.035156%, 94.500732%)" offset="0.0898438"/><stop stop-opacity="1" stop-color="rgb(49.752808%, 36.201477%, 94.262695%)" offset="0.09375"/><stop stop-opacity="1" stop-color="rgb(49.537659%, 36.367798%, 94.023132%)" offset="0.0976562"/><stop stop-opacity="1" stop-color="rgb(49.324036%, 36.535645%, 93.785095%)" offset="0.101562"/><stop stop-opacity="1" stop-color="rgb(49.108887%, 36.701965%, 93.545532%)" offset="0.105469"/><stop stop-opacity="1" stop-color="rgb(48.895264%, 36.868286%, 93.305969%)" offset="0.109375"/><stop stop-opacity="1" stop-color="rgb(48.680115%, 37.034607%, 93.066406%)" offset="0.113281"/><stop stop-opacity="1" stop-color="rgb(48.466492%, 37.202454%, 92.828369%)" offset="0.117188"/><stop stop-opacity="1" stop-color="rgb(48.251343%, 37.368774%, 92.588806%)" offset="0.121094"/><stop stop-opacity="1" stop-color="rgb(48.03772%, 37.536621%, 92.350769%)" offset="0.125"/><stop stop-opacity="1" stop-color="rgb(47.822571%, 37.702942%, 92.111206%)" offset="0.128906"/><stop stop-opacity="1" stop-color="rgb(47.608948%, 37.869263%, 91.871643%)" offset="0.132812"/><stop stop-opacity="1" stop-color="rgb(47.393799%, 38.035583%, 91.63208%)" offset="0.136719"/><stop stop-opacity="1" stop-color="rgb(47.180176%, 38.20343%, 91.394043%)" offset="0.140625"/><stop stop-opacity="1" stop-color="rgb(46.965027%, 38.369751%, 91.15448%)" offset="0.144531"/><stop stop-opacity="1" stop-color="rgb(46.751404%, 38.536072%, 90.916443%)" offset="0.148438"/><stop stop-opacity="1" stop-color="rgb(46.536255%, 38.702393%, 90.67688%)" offset="0.152344"/><stop stop-opacity="1" stop-color="rgb(46.322632%, 38.870239%, 90.438843%)" offset="0.15625"/><stop stop-opacity="1" stop-color="rgb(46.107483%, 39.03656%, 90.19928%)" offset="0.160156"/><stop stop-opacity="1" stop-color="rgb(45.89386%, 39.204407%, 89.959717%)" offset="0.164063"/><stop stop-opacity="1" stop-color="rgb(45.678711%, 39.370728%, 89.720154%)" offset="0.167969"/><stop stop-opacity="1" stop-color="rgb(45.465088%, 39.537048%, 89.482117%)" offset="0.171875"/><stop stop-opacity="1" stop-color="rgb(45.249939%, 39.703369%, 89.242554%)" offset="0.175781"/><stop stop-opacity="1" stop-color="rgb(45.036316%, 39.871216%, 89.004517%)" offset="0.179688"/><stop stop-opacity="1" stop-color="rgb(44.821167%, 40.037537%, 88.764954%)" offset="0.183594"/><stop stop-opacity="1" stop-color="rgb(44.607544%, 40.203857%, 88.525391%)" offset="0.1875"/><stop stop-opacity="1" stop-color="rgb(44.392395%, 40.370178%, 88.285828%)" offset="0.191406"/><stop stop-opacity="1" stop-color="rgb(44.178772%, 40.538025%, 88.047791%)" offset="0.195312"/><stop stop-opacity="1" stop-color="rgb(43.963623%, 40.704346%, 87.808228%)" offset="0.199219"/><stop stop-opacity="1" stop-color="rgb(43.75%, 40.870667%, 87.57019%)" offset="0.203125"/><stop stop-opacity="1" stop-color="rgb(43.534851%, 41.036987%, 87.330627%)" offset="0.207031"/><stop stop-opacity="1" stop-color="rgb(43.319702%, 41.204834%, 87.091064%)" offset="0.210938"/><stop stop-opacity="1" stop-color="rgb(43.104553%, 41.371155%, 86.851501%)" offset="0.214844"/><stop stop-opacity="1" stop-color="rgb(42.89093%, 41.539001%, 86.613464%)" offset="0.21875"/><stop stop-opacity="1" stop-color="rgb(42.675781%, 41.705322%, 86.373901%)" offset="0.222656"/><stop stop-opacity="1" stop-color="rgb(42.462158%, 41.871643%, 86.135864%)" offset="0.226562"/><stop stop-opacity="1" stop-color="rgb(42.247009%, 42.037964%, 85.896301%)" offset="0.230469"/><stop stop-opacity="1" stop-color="rgb(42.033386%, 42.205811%, 85.658264%)" offset="0.234375"/><stop stop-opacity="1" stop-color="rgb(41.818237%, 42.372131%, 85.418701%)" offset="0.238281"/><stop stop-opacity="1" stop-color="rgb(41.604614%, 42.538452%, 85.179138%)" offset="0.242188"/><stop stop-opacity="1" stop-color="rgb(41.389465%, 42.704773%, 84.939575%)" offset="0.246094"/><stop stop-opacity="1" stop-color="rgb(41.175842%, 42.87262%, 84.701538%)" offset="0.25"/><stop stop-opacity="1" stop-color="rgb(40.960693%, 43.03894%, 84.461975%)" offset="0.253906"/><stop stop-opacity="1" stop-color="rgb(40.74707%, 43.206787%, 84.223938%)" offset="0.257813"/><stop stop-opacity="1" stop-color="rgb(40.531921%, 43.373108%, 83.984375%)" offset="0.261719"/><stop stop-opacity="1" stop-color="rgb(40.318298%, 43.539429%, 83.744812%)" offset="0.265625"/><stop stop-opacity="1" stop-color="rgb(40.103149%, 43.70575%, 83.505249%)" offset="0.269531"/><stop stop-opacity="1" stop-color="rgb(39.889526%, 43.873596%, 83.267212%)" offset="0.273438"/><stop stop-opacity="1" stop-color="rgb(39.674377%, 44.039917%, 83.027649%)" offset="0.277344"/><stop stop-opacity="1" stop-color="rgb(39.460754%, 44.206238%, 82.789612%)" offset="0.28125"/><stop stop-opacity="1" stop-color="rgb(39.245605%, 44.372559%, 82.550049%)" offset="0.285156"/><stop stop-opacity="1" stop-color="rgb(39.031982%, 44.540405%, 82.310486%)" offset="0.289063"/><stop stop-opacity="1" stop-color="rgb(38.816833%, 44.706726%, 82.070923%)" offset="0.292969"/><stop stop-opacity="1" stop-color="rgb(38.60321%, 44.874573%, 81.832886%)" offset="0.296875"/><stop stop-opacity="1" stop-color="rgb(38.388062%, 45.040894%, 81.593323%)" offset="0.300781"/><stop stop-opacity="1" stop-color="rgb(38.174438%, 45.207214%, 81.355286%)" offset="0.304688"/><stop stop-opacity="1" stop-color="rgb(37.95929%, 45.373535%, 81.115723%)" offset="0.308594"/><stop stop-opacity="1" stop-color="rgb(37.745667%, 45.541382%, 80.877686%)" offset="0.3125"/><stop stop-opacity="1" stop-color="rgb(37.530518%, 45.707703%, 80.638123%)" offset="0.316406"/><stop stop-opacity="1" stop-color="rgb(37.316895%, 45.874023%, 80.39856%)" offset="0.320312"/><stop stop-opacity="1" stop-color="rgb(37.101746%, 46.040344%, 80.158997%)" offset="0.324219"/><stop stop-opacity="1" stop-color="rgb(36.888123%, 46.208191%, 79.920959%)" offset="0.328125"/><stop stop-opacity="1" stop-color="rgb(36.672974%, 46.374512%, 79.681396%)" offset="0.332031"/><stop stop-opacity="1" stop-color="rgb(36.459351%, 46.542358%, 79.443359%)" offset="0.335938"/><stop stop-opacity="1" stop-color="rgb(36.244202%, 46.708679%, 79.203796%)" offset="0.339844"/><stop stop-opacity="1" stop-color="rgb(36.030579%, 46.875%, 78.964233%)" offset="0.34375"/><stop stop-opacity="1" stop-color="rgb(35.81543%, 47.041321%, 78.72467%)" offset="0.347656"/><stop stop-opacity="1" stop-color="rgb(35.601807%, 47.209167%, 78.486633%)" offset="0.351563"/><stop stop-opacity="1" stop-color="rgb(35.386658%, 47.375488%, 78.24707%)" offset="0.355469"/><stop stop-opacity="1" stop-color="rgb(35.173035%, 47.541809%, 78.009033%)" offset="0.359375"/><stop stop-opacity="1" stop-color="rgb(34.957886%, 47.70813%, 77.76947%)" offset="0.363281"/><stop stop-opacity="1" stop-color="rgb(34.744263%, 47.875977%, 77.531433%)" offset="0.367188"/><stop stop-opacity="1" stop-color="rgb(34.529114%, 48.042297%, 77.29187%)" offset="0.371094"/><stop stop-opacity="1" stop-color="rgb(34.315491%, 48.208618%, 77.052307%)" offset="0.375"/><stop stop-opacity="1" stop-color="rgb(34.100342%, 48.374939%, 76.812744%)" offset="0.378906"/><stop stop-opacity="1" stop-color="rgb(33.886719%, 48.542786%, 76.574707%)" offset="0.382813"/><stop stop-opacity="1" stop-color="rgb(33.67157%, 48.709106%, 76.335144%)" offset="0.386719"/><stop stop-opacity="1" stop-color="rgb(33.456421%, 48.876953%, 76.097107%)" offset="0.390625"/><stop stop-opacity="1" stop-color="rgb(33.241272%, 49.043274%, 75.857544%)" offset="0.394531"/><stop stop-opacity="1" stop-color="rgb(33.027649%, 49.209595%, 75.617981%)" offset="0.398438"/><stop stop-opacity="1" stop-color="rgb(32.8125%, 49.375916%, 75.378418%)" offset="0.402344"/><stop stop-opacity="1" stop-color="rgb(32.598877%, 49.543762%, 75.140381%)" offset="0.40625"/><stop stop-opacity="1" stop-color="rgb(32.383728%, 49.710083%, 74.900818%)" offset="0.410156"/><stop stop-opacity="1" stop-color="rgb(32.170105%, 49.876404%, 74.662781%)" offset="0.414063"/><stop stop-opacity="1" stop-color="rgb(31.954956%, 50.042725%, 74.423218%)" offset="0.417969"/><stop stop-opacity="1" stop-color="rgb(31.741333%, 50.210571%, 74.183655%)" offset="0.421875"/><stop stop-opacity="1" stop-color="rgb(31.526184%, 50.376892%, 73.944092%)" offset="0.425781"/><stop stop-opacity="1" stop-color="rgb(31.312561%, 50.544739%, 73.706055%)" offset="0.429688"/><stop stop-opacity="1" stop-color="rgb(31.097412%, 50.71106%, 73.466492%)" offset="0.433594"/><stop stop-opacity="1" stop-color="rgb(30.883789%, 50.87738%, 73.228455%)" offset="0.4375"/><stop stop-opacity="1" stop-color="rgb(30.66864%, 51.043701%, 72.988892%)" offset="0.441406"/><stop stop-opacity="1" stop-color="rgb(30.455017%, 51.211548%, 72.750854%)" offset="0.445313"/><stop stop-opacity="1" stop-color="rgb(30.239868%, 51.377869%, 72.511292%)" offset="0.449219"/><stop stop-opacity="1" stop-color="rgb(30.026245%, 51.544189%, 72.271729%)" offset="0.453125"/><stop stop-opacity="1" stop-color="rgb(29.811096%, 51.71051%, 72.032166%)" offset="0.457031"/><stop stop-opacity="1" stop-color="rgb(29.597473%, 51.878357%, 71.794128%)" offset="0.460938"/><stop stop-opacity="1" stop-color="rgb(29.382324%, 52.044678%, 71.554565%)" offset="0.464844"/><stop stop-opacity="1" stop-color="rgb(29.168701%, 52.212524%, 71.316528%)" offset="0.46875"/><stop stop-opacity="1" stop-color="rgb(28.953552%, 52.378845%, 71.076965%)" offset="0.472656"/><stop stop-opacity="1" stop-color="rgb(28.739929%, 52.545166%, 70.837402%)" offset="0.476563"/><stop stop-opacity="1" stop-color="rgb(28.52478%, 52.711487%, 70.597839%)" offset="0.480469"/><stop stop-opacity="1" stop-color="rgb(28.311157%, 52.879333%, 70.359802%)" offset="0.484375"/><stop stop-opacity="1" stop-color="rgb(28.096008%, 53.045654%, 70.120239%)" offset="0.488281"/><stop stop-opacity="1" stop-color="rgb(27.882385%, 53.211975%, 69.882202%)" offset="0.492188"/><stop stop-opacity="1" stop-color="rgb(27.667236%, 53.378296%, 69.642639%)" offset="0.496094"/><stop stop-opacity="1" stop-color="rgb(27.453613%, 53.546143%, 69.404602%)" offset="0.5"/><stop stop-opacity="1" stop-color="rgb(27.238464%, 53.712463%, 69.165039%)" offset="0.503906"/><stop stop-opacity="1" stop-color="rgb(27.024841%, 53.88031%, 68.925476%)" offset="0.507812"/><stop stop-opacity="1" stop-color="rgb(26.809692%, 54.046631%, 68.685913%)" offset="0.511719"/><stop stop-opacity="1" stop-color="rgb(26.596069%, 54.212952%, 68.447876%)" offset="0.515625"/><stop stop-opacity="1" stop-color="rgb(26.38092%, 54.379272%, 68.208313%)" offset="0.519531"/><stop stop-opacity="1" stop-color="rgb(26.167297%, 54.547119%, 67.970276%)" offset="0.523438"/><stop stop-opacity="1" stop-color="rgb(25.952148%, 54.71344%, 67.730713%)" offset="0.527344"/><stop stop-opacity="1" stop-color="rgb(25.738525%, 54.879761%, 67.49115%)" offset="0.53125"/><stop stop-opacity="1" stop-color="rgb(25.523376%, 55.046082%, 67.251587%)" offset="0.535156"/><stop stop-opacity="1" stop-color="rgb(25.309753%, 55.213928%, 67.01355%)" offset="0.539063"/><stop stop-opacity="1" stop-color="rgb(25.094604%, 55.380249%, 66.773987%)" offset="0.542969"/><stop stop-opacity="1" stop-color="rgb(24.880981%, 55.54657%, 66.53595%)" offset="0.546875"/><stop stop-opacity="1" stop-color="rgb(24.665833%, 55.712891%, 66.296387%)" offset="0.550781"/><stop stop-opacity="1" stop-color="rgb(24.452209%, 55.880737%, 66.056824%)" offset="0.554688"/><stop stop-opacity="1" stop-color="rgb(24.237061%, 56.047058%, 65.817261%)" offset="0.558594"/><stop stop-opacity="1" stop-color="rgb(24.021912%, 56.214905%, 65.579224%)" offset="0.5625"/><stop stop-opacity="1" stop-color="rgb(23.806763%, 56.381226%, 65.339661%)" offset="0.566406"/><stop stop-opacity="1" stop-color="rgb(23.59314%, 56.547546%, 65.101624%)" offset="0.570312"/><stop stop-opacity="1" stop-color="rgb(23.377991%, 56.713867%, 64.862061%)" offset="0.574219"/><stop stop-opacity="1" stop-color="rgb(23.164368%, 56.881714%, 64.624023%)" offset="0.578125"/><stop stop-opacity="1" stop-color="rgb(22.949219%, 57.048035%, 64.38446%)" offset="0.582031"/><stop stop-opacity="1" stop-color="rgb(22.735596%, 57.214355%, 64.144897%)" offset="0.585938"/><stop stop-opacity="1" stop-color="rgb(22.520447%, 57.380676%, 63.905334%)" offset="0.589844"/><stop stop-opacity="1" stop-color="rgb(22.306824%, 57.548523%, 63.667297%)" offset="0.59375"/><stop stop-opacity="1" stop-color="rgb(22.091675%, 57.714844%, 63.427734%)" offset="0.597656"/><stop stop-opacity="1" stop-color="rgb(21.878052%, 57.88269%, 63.189697%)" offset="0.601562"/><stop stop-opacity="1" stop-color="rgb(21.662903%, 58.049011%, 62.950134%)" offset="0.605469"/><stop stop-opacity="1" stop-color="rgb(21.44928%, 58.215332%, 62.710571%)" offset="0.609375"/><stop stop-opacity="1" stop-color="rgb(21.234131%, 58.381653%, 62.471008%)" offset="0.613281"/><stop stop-opacity="1" stop-color="rgb(21.020508%, 58.5495%, 62.232971%)" offset="0.617188"/><stop stop-opacity="1" stop-color="rgb(20.805359%, 58.71582%, 61.993408%)" offset="0.621094"/><stop stop-opacity="1" stop-color="rgb(20.591736%, 58.882141%, 61.755371%)" offset="0.625"/><stop stop-opacity="1" stop-color="rgb(20.376587%, 59.048462%, 61.515808%)" offset="0.628906"/><stop stop-opacity="1" stop-color="rgb(20.162964%, 59.216309%, 61.276245%)" offset="0.632812"/><stop stop-opacity="1" stop-color="rgb(19.947815%, 59.382629%, 61.036682%)" offset="0.636719"/><stop stop-opacity="1" stop-color="rgb(19.734192%, 59.550476%, 60.798645%)" offset="0.640625"/><stop stop-opacity="1" stop-color="rgb(19.519043%, 59.716797%, 60.559082%)" offset="0.644531"/><stop stop-opacity="1" stop-color="rgb(19.30542%, 59.883118%, 60.321045%)" offset="0.648438"/><stop stop-opacity="1" stop-color="rgb(19.090271%, 60.049438%, 60.081482%)" offset="0.652344"/><stop stop-opacity="1" stop-color="rgb(18.876648%, 60.217285%, 59.843445%)" offset="0.65625"/><stop stop-opacity="1" stop-color="rgb(18.661499%, 60.383606%, 59.603882%)" offset="0.660156"/><stop stop-opacity="1" stop-color="rgb(18.447876%, 60.549927%, 59.364319%)" offset="0.664062"/><stop stop-opacity="1" stop-color="rgb(18.232727%, 60.716248%, 59.124756%)" offset="0.667969"/><stop stop-opacity="1" stop-color="rgb(18.019104%, 60.884094%, 58.886719%)" offset="0.671875"/><stop stop-opacity="1" stop-color="rgb(17.803955%, 61.050415%, 58.647156%)" offset="0.675781"/><stop stop-opacity="1" stop-color="rgb(17.590332%, 61.216736%, 58.409119%)" offset="0.679688"/><stop stop-opacity="1" stop-color="rgb(17.375183%, 61.383057%, 58.169556%)" offset="0.683594"/><stop stop-opacity="1" stop-color="rgb(17.16156%, 61.550903%, 57.929993%)" offset="0.6875"/><stop stop-opacity="1" stop-color="rgb(16.946411%, 61.717224%, 57.69043%)" offset="0.691406"/><stop stop-opacity="1" stop-color="rgb(16.732788%, 61.885071%, 57.452393%)" offset="0.695313"/><stop stop-opacity="1" stop-color="rgb(16.517639%, 62.051392%, 57.21283%)" offset="0.699219"/><stop stop-opacity="1" stop-color="rgb(16.304016%, 62.217712%, 56.974792%)" offset="0.703125"/><stop stop-opacity="1" stop-color="rgb(16.088867%, 62.384033%, 56.735229%)" offset="0.707031"/><stop stop-opacity="1" stop-color="rgb(15.875244%, 62.55188%, 56.497192%)" offset="0.710938"/><stop stop-opacity="1" stop-color="rgb(15.660095%, 62.718201%, 56.257629%)" offset="0.714844"/><stop stop-opacity="1" stop-color="rgb(15.446472%, 62.884521%, 56.018066%)" offset="0.71875"/><stop stop-opacity="1" stop-color="rgb(15.231323%, 63.050842%, 55.778503%)" offset="0.722656"/><stop stop-opacity="1" stop-color="rgb(15.0177%, 63.218689%, 55.540466%)" offset="0.726562"/><stop stop-opacity="1" stop-color="rgb(14.802551%, 63.38501%, 55.300903%)" offset="0.730469"/><stop stop-opacity="1" stop-color="rgb(14.588928%, 63.552856%, 55.062866%)" offset="0.734375"/><stop stop-opacity="1" stop-color="rgb(14.373779%, 63.719177%, 54.823303%)" offset="0.738281"/><stop stop-opacity="1" stop-color="rgb(14.15863%, 63.885498%, 54.58374%)" offset="0.742188"/><stop stop-opacity="1" stop-color="rgb(13.943481%, 64.051819%, 54.344177%)" offset="0.746094"/><stop stop-opacity="1" stop-color="rgb(13.729858%, 64.219666%, 54.10614%)" offset="0.75"/><stop stop-opacity="1" stop-color="rgb(13.514709%, 64.385986%, 53.866577%)" offset="0.753906"/><stop stop-opacity="1" stop-color="rgb(13.301086%, 64.552307%, 53.62854%)" offset="0.757812"/><stop stop-opacity="1" stop-color="rgb(13.085938%, 64.718628%, 53.388977%)" offset="0.761719"/><stop stop-opacity="1" stop-color="rgb(12.872314%, 64.886475%, 53.149414%)" offset="0.765625"/><stop stop-opacity="1" stop-color="rgb(12.657166%, 65.052795%, 52.909851%)" offset="0.769531"/><stop stop-opacity="1" stop-color="rgb(12.443542%, 65.220642%, 52.671814%)" offset="0.773438"/><stop stop-opacity="1" stop-color="rgb(12.228394%, 65.386963%, 52.432251%)" offset="0.777344"/><stop stop-opacity="1" stop-color="rgb(12.014771%, 65.553284%, 52.194214%)" offset="0.78125"/><stop stop-opacity="1" stop-color="rgb(11.799622%, 65.719604%, 51.954651%)" offset="0.785156"/><stop stop-opacity="1" stop-color="rgb(11.585999%, 65.887451%, 51.716614%)" offset="0.789062"/><stop stop-opacity="1" stop-color="rgb(11.37085%, 66.053772%, 51.477051%)" offset="0.792969"/><stop stop-opacity="1" stop-color="rgb(11.157227%, 66.220093%, 51.237488%)" offset="0.796875"/><stop stop-opacity="1" stop-color="rgb(10.942078%, 66.386414%, 50.997925%)" offset="0.800781"/><stop stop-opacity="1" stop-color="rgb(10.728455%, 66.55426%, 50.759888%)" offset="0.804688"/><stop stop-opacity="1" stop-color="rgb(10.513306%, 66.720581%, 50.520325%)" offset="0.808594"/><stop stop-opacity="1" stop-color="rgb(10.299683%, 66.888428%, 50.282288%)" offset="0.8125"/><stop stop-opacity="1" stop-color="rgb(10.084534%, 67.054749%, 50.042725%)" offset="0.816406"/><stop stop-opacity="1" stop-color="rgb(9.870911%, 67.221069%, 49.803162%)" offset="0.820312"/><stop stop-opacity="1" stop-color="rgb(9.655762%, 67.38739%, 49.563599%)" offset="0.824219"/><stop stop-opacity="1" stop-color="rgb(9.442139%, 67.555237%, 49.325562%)" offset="0.828125"/><stop stop-opacity="1" stop-color="rgb(9.22699%, 67.721558%, 49.085999%)" offset="0.832031"/><stop stop-opacity="1" stop-color="rgb(9.013367%, 67.887878%, 48.847961%)" offset="0.835938"/><stop stop-opacity="1" stop-color="rgb(8.798218%, 68.054199%, 48.608398%)" offset="0.839844"/><stop stop-opacity="1" stop-color="rgb(8.584595%, 68.222046%, 48.368835%)" offset="0.84375"/><stop stop-opacity="1" stop-color="rgb(8.369446%, 68.388367%, 48.129272%)" offset="0.847656"/><stop stop-opacity="1" stop-color="rgb(8.155823%, 68.554688%, 47.891235%)" offset="0.851562"/><stop stop-opacity="1" stop-color="rgb(7.940674%, 68.721008%, 47.651672%)" offset="0.855469"/><stop stop-opacity="1" stop-color="rgb(7.727051%, 68.888855%, 47.413635%)" offset="0.859375"/><stop stop-opacity="1" stop-color="rgb(7.511902%, 69.055176%, 47.174072%)" offset="0.863281"/><stop stop-opacity="1" stop-color="rgb(7.298279%, 69.223022%, 46.936035%)" offset="0.867187"/><stop stop-opacity="1" stop-color="rgb(7.08313%, 69.389343%, 46.696472%)" offset="0.871094"/><stop stop-opacity="1" stop-color="rgb(6.869507%, 69.555664%, 46.456909%)" offset="0.875"/><stop stop-opacity="1" stop-color="rgb(6.654358%, 69.721985%, 46.217346%)" offset="0.878906"/><stop stop-opacity="1" stop-color="rgb(6.440735%, 69.889832%, 45.979309%)" offset="0.882812"/><stop stop-opacity="1" stop-color="rgb(6.225586%, 70.056152%, 45.739746%)" offset="0.886719"/><stop stop-opacity="1" stop-color="rgb(6.011963%, 70.222473%, 45.501709%)" offset="0.890625"/><stop stop-opacity="1" stop-color="rgb(5.796814%, 70.388794%, 45.262146%)" offset="0.894531"/><stop stop-opacity="1" stop-color="rgb(5.583191%, 70.556641%, 45.022583%)" offset="0.898438"/><stop stop-opacity="1" stop-color="rgb(5.368042%, 70.722961%, 44.78302%)" offset="0.902344"/><stop stop-opacity="1" stop-color="rgb(5.154419%, 70.890808%, 44.544983%)" offset="0.90625"/><stop stop-opacity="1" stop-color="rgb(4.93927%, 71.057129%, 44.30542%)" offset="0.910156"/><stop stop-opacity="1" stop-color="rgb(4.724121%, 71.22345%, 44.067383%)" offset="0.914062"/><stop stop-opacity="1" stop-color="rgb(4.508972%, 71.389771%, 43.82782%)" offset="0.917969"/><stop stop-opacity="1" stop-color="rgb(4.295349%, 71.557617%, 43.589783%)" offset="0.921875"/><stop stop-opacity="1" stop-color="rgb(4.0802%, 71.723938%, 43.35022%)" offset="0.925781"/><stop stop-opacity="1" stop-color="rgb(3.866577%, 71.890259%, 43.110657%)" offset="0.929687"/><stop stop-opacity="1" stop-color="rgb(3.651428%, 72.05658%, 42.871094%)" offset="0.933594"/><stop stop-opacity="1" stop-color="rgb(3.437805%, 72.224426%, 42.633057%)" offset="0.9375"/><stop stop-opacity="1" stop-color="rgb(3.222656%, 72.390747%, 42.393494%)" offset="0.941406"/><stop stop-opacity="1" stop-color="rgb(3.009033%, 72.558594%, 42.155457%)" offset="0.945312"/><stop stop-opacity="1" stop-color="rgb(2.793884%, 72.724915%, 41.915894%)" offset="0.949219"/><stop stop-opacity="1" stop-color="rgb(2.580261%, 72.891235%, 41.676331%)" offset="0.953125"/><stop stop-opacity="1" stop-color="rgb(2.365112%, 73.057556%, 41.436768%)" offset="0.957031"/><stop stop-opacity="1" stop-color="rgb(2.151489%, 73.225403%, 41.19873%)" offset="0.960938"/><stop stop-opacity="1" stop-color="rgb(1.93634%, 73.391724%, 40.959167%)" offset="0.964844"/><stop stop-opacity="1" stop-color="rgb(1.722717%, 73.558044%, 40.72113%)" offset="0.96875"/><stop stop-opacity="1" stop-color="rgb(1.507568%, 73.724365%, 40.481567%)" offset="0.972656"/><stop stop-opacity="1" stop-color="rgb(1.293945%, 73.892212%, 40.242004%)" offset="0.976562"/><stop stop-opacity="1" stop-color="rgb(1.078796%, 74.058533%, 40.002441%)" offset="0.980469"/><stop stop-opacity="1" stop-color="rgb(0.865173%, 74.226379%, 39.764404%)" offset="0.984375"/><stop stop-opacity="1" stop-color="rgb(0.650024%, 74.3927%, 39.524841%)" offset="0.988281"/><stop stop-opacity="1" stop-color="rgb(0.436401%, 74.559021%, 39.286804%)" offset="0.992188"/><stop stop-opacity="1" stop-color="rgb(0.221252%, 74.725342%, 39.047241%)" offset="0.996094"/><stop stop-opacity="1" stop-color="rgb(0.00762939%, 74.893188%, 38.809204%)" offset="1"/></linearGradient></defs><g clip-path="url(#c13cb6d14a)"><g clip-path="url(#d12d5cf0e7)"><path fill="url(#9e94305343)" d="M 0 106.441406 L 0 238.652344 L 374.941406 238.652344 L 374.941406 106.441406 Z M 0 106.441406 " fill-rule="nonzero"/></g></g><g fill="#000000" fill-opacity="1"><g transform="translate(50.987315, 182.31976)"><g><path d="M 15.703125 -24.609375 L 18.953125 -24.609375 C 21.984375 -24.609375 24.25 -25.207031 25.75 -26.40625 C 27.257812 -27.601562 28.015625 -29.34375 28.015625 -31.625 C 28.015625 -33.9375 27.378906 -35.644531 26.109375 -36.75 C 24.847656 -37.851562 22.875 -38.40625 20.1875 -38.40625 L 15.703125 -38.40625 Z M 37.953125 -31.984375 C 37.953125 -26.984375 36.390625 -23.15625 33.265625 -20.5 C 30.140625 -17.851562 25.695312 -16.53125 19.9375 -16.53125 L 15.703125 -16.53125 L 15.703125 0 L 5.84375 0 L 5.84375 -46.484375 L 20.703125 -46.484375 C 26.335938 -46.484375 30.617188 -45.269531 33.546875 -42.84375 C 36.484375 -40.414062 37.953125 -36.796875 37.953125 -31.984375 Z M 37.953125 -31.984375 "/></g></g></g><g fill="#000000" fill-opacity="1"><g transform="translate(91.8674, 182.31976)"><g><path d="M 12.8125 -17.828125 C 12.8125 -14.316406 13.390625 -11.660156 14.546875 -9.859375 C 15.703125 -8.054688 17.582031 -7.15625 20.1875 -7.15625 C 22.769531 -7.15625 24.628906 -8.050781 25.765625 -9.84375 C 26.898438 -11.632812 27.46875 -14.296875 27.46875 -17.828125 C 27.46875 -21.347656 26.894531 -23.988281 25.75 -25.75 C 24.601562 -27.507812 22.726562 -28.390625 20.125 -28.390625 C 17.539062 -28.390625 15.675781 -27.515625 14.53125 -25.765625 C 13.382812 -24.015625 12.8125 -21.367188 12.8125 -17.828125 Z M 37.390625 -17.828125 C 37.390625 -12.046875 35.863281 -7.519531 32.8125 -4.25 C 29.757812 -0.988281 25.507812 0.640625 20.0625 0.640625 C 16.644531 0.640625 13.632812 -0.101562 11.03125 -1.59375 C 8.425781 -3.09375 6.421875 -5.238281 5.015625 -8.03125 C 3.617188 -10.832031 2.921875 -14.097656 2.921875 -17.828125 C 2.921875 -23.640625 4.4375 -28.15625 7.46875 -31.375 C 10.5 -34.59375 14.757812 -36.203125 20.25 -36.203125 C 23.664062 -36.203125 26.675781 -35.460938 29.28125 -33.984375 C 31.882812 -32.503906 33.882812 -30.375 35.28125 -27.59375 C 36.6875 -24.820312 37.390625 -21.566406 37.390625 -17.828125 Z M 37.390625 -17.828125 "/></g></g></g><g fill="#000000" fill-opacity="1"><g transform="translate(132.175292, 182.31976)"><g><path d="M 24.921875 -36.203125 C 26.234375 -36.203125 27.328125 -36.109375 28.203125 -35.921875 L 27.46875 -26.828125 C 26.6875 -27.046875 25.734375 -27.15625 24.609375 -27.15625 C 21.515625 -27.15625 19.101562 -26.359375 17.375 -24.765625 C 15.644531 -23.171875 14.78125 -20.945312 14.78125 -18.09375 L 14.78125 0 L 5.09375 0 L 5.09375 -35.546875 L 12.4375 -35.546875 L 13.859375 -29.5625 L 14.34375 -29.5625 C 15.4375 -31.5625 16.921875 -33.164062 18.796875 -34.375 C 20.679688 -35.59375 22.722656 -36.203125 24.921875 -36.203125 Z M 24.921875 -36.203125 "/></g></g></g><g fill="#000000" fill-opacity="1"><g transform="translate(161.738651, 182.31976)"><g><path d="M 20.0625 -7.09375 C 21.757812 -7.09375 23.796875 -7.460938 26.171875 -8.203125 L 26.171875 -0.984375 C 23.753906 0.0976562 20.785156 0.640625 17.265625 0.640625 C 13.378906 0.640625 10.550781 -0.335938 8.78125 -2.296875 C 7.019531 -4.265625 6.140625 -7.207031 6.140625 -11.125 L 6.140625 -28.265625 L 1.5 -28.265625 L 1.5 -32.359375 L 6.828125 -35.609375 L 9.640625 -43.109375 L 15.828125 -43.109375 L 15.828125 -35.546875 L 25.78125 -35.546875 L 25.78125 -28.265625 L 15.828125 -28.265625 L 15.828125 -11.125 C 15.828125 -9.75 16.210938 -8.734375 16.984375 -8.078125 C 17.765625 -7.421875 18.789062 -7.09375 20.0625 -7.09375 Z M 20.0625 -7.09375 "/></g></g></g><g fill="#000000" fill-opacity="1"><g transform="translate(189.998687, 182.31976)"><g><path d="M 24.734375 -28.265625 L 16.34375 -28.265625 L 16.34375 0 L 6.640625 0 L 6.640625 -28.265625 L 1.296875 -28.265625 L 1.296875 -32.9375 L 6.640625 -35.546875 L 6.640625 -38.15625 C 6.640625 -42.195312 7.632812 -45.148438 9.625 -47.015625 C 11.625 -48.878906 14.816406 -49.8125 19.203125 -49.8125 C 22.546875 -49.8125 25.523438 -49.316406 28.140625 -48.328125 L 25.65625 -41.203125 C 23.707031 -41.816406 21.90625 -42.125 20.25 -42.125 C 18.875 -42.125 17.878906 -41.710938 17.265625 -40.890625 C 16.648438 -40.078125 16.34375 -39.035156 16.34375 -37.765625 L 16.34375 -35.546875 L 24.734375 -35.546875 Z M 24.734375 -28.265625 "/></g></g></g><g fill="#000000" fill-opacity="1"><g transform="translate(215.20702, 182.31976)"><g><path d="M 12.8125 -17.828125 C 12.8125 -14.316406 13.390625 -11.660156 14.546875 -9.859375 C 15.703125 -8.054688 17.582031 -7.15625 20.1875 -7.15625 C 22.769531 -7.15625 24.628906 -8.050781 25.765625 -9.84375 C 26.898438 -11.632812 27.46875 -14.296875 27.46875 -17.828125 C 27.46875 -21.347656 26.894531 -23.988281 25.75 -25.75 C 24.601562 -27.507812 22.726562 -28.390625 20.125 -28.390625 C 17.539062 -28.390625 15.675781 -27.515625 14.53125 -25.765625 C 13.382812 -24.015625 12.8125 -21.367188 12.8125 -17.828125 Z M 37.390625 -17.828125 C 37.390625 -12.046875 35.863281 -7.519531 32.8125 -4.25 C 29.757812 -0.988281 25.507812 0.640625 20.0625 0.640625 C 16.644531 0.640625 13.632812 -0.101562 11.03125 -1.59375 C 8.425781 -3.09375 6.421875 -5.238281 5.015625 -8.03125 C 3.617188 -10.832031 2.921875 -14.097656 2.921875 -17.828125 C 2.921875 -23.640625 4.4375 -28.15625 7.46875 -31.375 C 10.5 -34.59375 14.757812 -36.203125 20.25 -36.203125 C 23.664062 -36.203125 26.675781 -35.460938 29.28125 -33.984375 C 31.882812 -32.503906 33.882812 -30.375 35.28125 -27.59375 C 36.6875 -24.820312 37.390625 -21.566406 37.390625 -17.828125 Z M 14.859375 -39.453125 L 14.859375 -40.3125 C 18.492188 -44.550781 20.984375 -47.738281 22.328125 -49.875 L 33.203125 -49.875 L 33.203125 -49.21875 C 32.097656 -48.113281 30.210938 -46.472656 27.546875 -44.296875 C 24.890625 -42.128906 22.8125 -40.515625 21.3125 -39.453125 Z M 14.859375 -39.453125 "/></g></g></g><g fill="#000000" fill-opacity="1"><g transform="translate(255.514912, 182.31976)"><g><path d="M 14.78125 0 L 5.09375 0 L 5.09375 -49.46875 L 14.78125 -49.46875 Z M 14.78125 0 "/></g></g></g><g fill="#000000" fill-opacity="1"><g transform="translate(275.382768, 182.31976)"><g><path d="M 4.671875 -44.734375 C 4.671875 -47.890625 6.429688 -49.46875 9.953125 -49.46875 C 13.472656 -49.46875 15.234375 -47.890625 15.234375 -44.734375 C 15.234375 -43.222656 14.789062 -42.050781 13.90625 -41.21875 C 13.03125 -40.382812 11.710938 -39.96875 9.953125 -39.96875 C 6.429688 -39.96875 4.671875 -41.554688 4.671875 -44.734375 Z M 14.78125 0 L 5.09375 0 L 5.09375 -35.546875 L 14.78125 -35.546875 Z M 14.78125 0 "/></g></g></g><g fill="#000000" fill-opacity="1"><g transform="translate(295.250624, 182.31976)"><g><path d="M 12.8125 -17.828125 C 12.8125 -14.316406 13.390625 -11.660156 14.546875 -9.859375 C 15.703125 -8.054688 17.582031 -7.15625 20.1875 -7.15625 C 22.769531 -7.15625 24.628906 -8.050781 25.765625 -9.84375 C 26.898438 -11.632812 27.46875 -14.296875 27.46875 -17.828125 C 27.46875 -21.347656 26.894531 -23.988281 25.75 -25.75 C 24.601562 -27.507812 22.726562 -28.390625 20.125 -28.390625 C 17.539062 -28.390625 15.675781 -27.515625 14.53125 -25.765625 C 13.382812 -24.015625 12.8125 -21.367188 12.8125 -17.828125 Z M 37.390625 -17.828125 C 37.390625 -12.046875 35.863281 -7.519531 32.8125 -4.25 C 29.757812 -0.988281 25.507812 0.640625 20.0625 0.640625 C 16.644531 0.640625 13.632812 -0.101562 11.03125 -1.59375 C 8.425781 -3.09375 6.421875 -5.238281 5.015625 -8.03125 C 3.617188 -10.832031 2.921875 -14.097656 2.921875 -17.828125 C 2.921875 -23.640625 4.4375 -28.15625 7.46875 -31.375 C 10.5 -34.59375 14.757812 -36.203125 20.25 -36.203125 C 23.664062 -36.203125 26.675781 -35.460938 29.28125 -33.984375 C 31.882812 -32.503906 33.882812 -30.375 35.28125 -27.59375 C 36.6875 -24.820312 37.390625 -21.566406 37.390625 -17.828125 Z M 37.390625 -17.828125 "/></g></g></g><g fill="#000000" fill-opacity="1"><g transform="translate(138.210933, 208.999484)"><g><path d="M 1.421875 -24.75 L 1.421875 -25.484375 L 11.28125 -25.484375 C 13.570312 -25.484375 15.503906 -24.785156 17.078125 -23.390625 C 18.660156 -22.003906 19.453125 -20.140625 19.453125 -17.796875 C 19.453125 -15.453125 18.660156 -13.582031 17.078125 -12.1875 C 15.503906 -10.800781 13.570312 -10.109375 11.28125 -10.109375 L 7.203125 -10.109375 L 7.203125 -1.296875 C 7.203125 -0.921875 7.390625 -0.734375 7.765625 -0.734375 L 10.484375 -0.734375 L 10.484375 0 L 1.421875 0 L 1.421875 -0.734375 L 3.3125 -0.734375 C 3.695312 -0.734375 3.890625 -0.921875 3.890625 -1.296875 L 3.890625 -24.265625 C 3.890625 -24.585938 3.695312 -24.75 3.3125 -24.75 Z M 11.078125 -24.359375 L 7.203125 -24.359375 L 7.203125 -11.25 L 11.078125 -11.25 C 12.671875 -11.25 13.925781 -11.898438 14.84375 -13.203125 C 15.757812 -14.515625 16.21875 -16.046875 16.21875 -17.796875 C 16.21875 -19.546875 15.757812 -21.078125 14.84375 -22.390625 C 13.925781 -23.703125 12.671875 -24.359375 11.078125 -24.359375 Z M 11.078125 -24.359375 "/></g></g></g><g fill="#000000" fill-opacity="1"><g transform="translate(157.871126, 208.999484)"><g><path d="M 9.796875 -17.96875 C 11.648438 -17.96875 13.113281 -17.34375 14.1875 -16.09375 C 15.269531 -14.851562 15.8125 -13.035156 15.8125 -10.640625 C 15.8125 -10.148438 15.785156 -9.609375 15.734375 -9.015625 L 4.6875 -9.015625 L 4.6875 -8.734375 C 4.6875 -6.171875 5.148438 -4.15625 6.078125 -2.6875 C 7.015625 -1.21875 8.21875 -0.484375 9.6875 -0.484375 C 11.15625 -0.484375 12.359375 -0.859375 13.296875 -1.609375 C 14.242188 -2.367188 14.894531 -3.453125 15.25 -4.859375 L 16.015625 -4.6875 C 15.691406 -3.039062 14.953125 -1.765625 13.796875 -0.859375 C 12.640625 0.0351562 11.304688 0.484375 9.796875 0.484375 C 7.441406 0.484375 5.488281 -0.335938 3.9375 -1.984375 C 2.394531 -3.628906 1.625 -5.875 1.625 -8.71875 C 1.625 -11.5625 2.40625 -13.8125 3.96875 -15.46875 C 5.53125 -17.132812 7.472656 -17.96875 9.796875 -17.96875 Z M 13.03125 -12.015625 C 13.03125 -15.328125 11.785156 -16.984375 9.296875 -16.984375 C 8.054688 -16.984375 7 -16.304688 6.125 -14.953125 C 5.25 -13.609375 4.785156 -11.898438 4.734375 -9.828125 L 12.859375 -9.828125 C 12.972656 -10.742188 13.03125 -11.472656 13.03125 -12.015625 Z M 13.03125 -12.015625 "/></g></g></g><g fill="#000000" fill-opacity="1"><g transform="translate(175.71093, 208.999484)"><g><path d="M 6.875 -10.96875 L 11.078125 -9.390625 C 12.078125 -9.003906 12.835938 -8.425781 13.359375 -7.65625 C 13.890625 -6.894531 14.15625 -6.039062 14.15625 -5.09375 C 14.15625 -3.632812 13.570312 -2.335938 12.40625 -1.203125 C 11.25 -0.078125 9.691406 0.484375 7.734375 0.484375 C 5.785156 0.484375 3.945312 0.117188 2.21875 -0.609375 C 2.382812 -1.253906 2.46875 -2.382812 2.46875 -4 L 2.46875 -5.625 L 3.203125 -5.625 L 3.484375 -3.515625 C 3.722656 -1.492188 5.132812 -0.484375 7.71875 -0.484375 C 8.882812 -0.484375 9.847656 -0.835938 10.609375 -1.546875 C 11.378906 -2.265625 11.765625 -3.082031 11.765625 -4 C 11.765625 -5.269531 11 -6.1875 9.46875 -6.75 L 5.265625 -8.328125 C 4.316406 -8.679688 3.597656 -9.234375 3.109375 -9.984375 C 2.628906 -10.742188 2.390625 -11.597656 2.390625 -12.546875 C 2.390625 -13.972656 2.898438 -15.234375 3.921875 -16.328125 C 4.953125 -17.421875 6.238281 -17.96875 7.78125 -17.96875 C 9.332031 -17.96875 11.082031 -17.601562 13.03125 -16.875 C 12.863281 -16.21875 12.78125 -15.082031 12.78125 -13.46875 L 12.78125 -11.859375 L 12.0625 -11.859375 L 11.765625 -13.953125 C 11.554688 -15.898438 10.332031 -16.875 8.09375 -16.875 C 7.09375 -16.875 6.269531 -16.5625 5.625 -15.9375 C 4.976562 -15.320312 4.65625 -14.59375 4.65625 -13.75 C 4.65625 -12.457031 5.394531 -11.53125 6.875 -10.96875 Z M 6.875 -10.96875 "/></g></g></g><g fill="#000000" fill-opacity="1"><g transform="translate(191.689892, 208.999484)"><g><path d="M 6.875 -10.96875 L 11.078125 -9.390625 C 12.078125 -9.003906 12.835938 -8.425781 13.359375 -7.65625 C 13.890625 -6.894531 14.15625 -6.039062 14.15625 -5.09375 C 14.15625 -3.632812 13.570312 -2.335938 12.40625 -1.203125 C 11.25 -0.078125 9.691406 0.484375 7.734375 0.484375 C 5.785156 0.484375 3.945312 0.117188 2.21875 -0.609375 C 2.382812 -1.253906 2.46875 -2.382812 2.46875 -4 L 2.46875 -5.625 L 3.203125 -5.625 L 3.484375 -3.515625 C 3.722656 -1.492188 5.132812 -0.484375 7.71875 -0.484375 C 8.882812 -0.484375 9.847656 -0.835938 10.609375 -1.546875 C 11.378906 -2.265625 11.765625 -3.082031 11.765625 -4 C 11.765625 -5.269531 11 -6.1875 9.46875 -6.75 L 5.265625 -8.328125 C 4.316406 -8.679688 3.597656 -9.234375 3.109375 -9.984375 C 2.628906 -10.742188 2.390625 -11.597656 2.390625 -12.546875 C 2.390625 -13.972656 2.898438 -15.234375 3.921875 -16.328125 C 4.953125 -17.421875 6.238281 -17.96875 7.78125 -17.96875 C 9.332031 -17.96875 11.082031 -17.601562 13.03125 -16.875 C 12.863281 -16.21875 12.78125 -15.082031 12.78125 -13.46875 L 12.78125 -11.859375 L 12.0625 -11.859375 L 11.765625 -13.953125 C 11.554688 -15.898438 10.332031 -16.875 8.09375 -16.875 C 7.09375 -16.875 6.269531 -16.5625 5.625 -15.9375 C 4.976562 -15.320312 4.65625 -14.59375 4.65625 -13.75 C 4.65625 -12.457031 5.394531 -11.53125 6.875 -10.96875 Z M 6.875 -10.96875 "/></g></g></g><g fill="#000000" fill-opacity="1"><g transform="translate(207.668853, 208.999484)"><g><path d="M 3.890625 -1.984375 C 2.378906 -3.628906 1.625 -5.878906 1.625 -8.734375 C 1.625 -11.597656 2.378906 -13.851562 3.890625 -15.5 C 5.398438 -17.144531 7.367188 -17.96875 9.796875 -17.96875 C 12.222656 -17.96875 14.195312 -17.144531 15.71875 -15.5 C 17.238281 -13.851562 18 -11.597656 18 -8.734375 C 18 -5.878906 17.238281 -3.628906 15.71875 -1.984375 C 14.195312 -0.335938 12.222656 0.484375 9.796875 0.484375 C 7.367188 0.484375 5.398438 -0.335938 3.890625 -1.984375 Z M 6.140625 -14.828125 C 5.171875 -13.328125 4.6875 -11.296875 4.6875 -8.734375 C 4.6875 -6.171875 5.171875 -4.140625 6.140625 -2.640625 C 7.117188 -1.148438 8.332031 -0.40625 9.78125 -0.40625 C 11.238281 -0.40625 12.457031 -1.148438 13.4375 -2.640625 C 14.425781 -4.140625 14.921875 -6.171875 14.921875 -8.734375 C 14.921875 -11.296875 14.425781 -13.328125 13.4375 -14.828125 C 12.457031 -16.328125 11.238281 -17.078125 9.78125 -17.078125 C 8.332031 -17.078125 7.117188 -16.328125 6.140625 -14.828125 Z M 6.140625 -14.828125 "/></g></g></g><g fill="#000000" fill-opacity="1"><g transform="translate(227.288591, 208.999484)"><g><path d="M 11.5625 -9.421875 L 11.609375 -10.84375 L 11.609375 -12.25 C 11.609375 -15.40625 10.582031 -16.984375 8.53125 -16.984375 C 7.644531 -16.984375 6.953125 -16.679688 6.453125 -16.078125 C 5.953125 -15.472656 5.703125 -14.765625 5.703125 -13.953125 C 5.703125 -13.148438 5.8125 -12.453125 6.03125 -11.859375 C 5.570312 -11.453125 4.9375 -11.25 4.125 -11.25 C 3.3125 -11.25 2.90625 -11.90625 2.90625 -13.21875 C 2.90625 -14.539062 3.425781 -15.660156 4.46875 -16.578125 C 5.507812 -17.503906 6.988281 -17.96875 8.90625 -17.96875 C 12.644531 -17.96875 14.515625 -15.753906 14.515625 -11.328125 L 14.515625 -3.03125 C 14.515625 -1.570312 14.921875 -0.84375 15.734375 -0.84375 C 16.109375 -0.84375 16.4375 -1.019531 16.71875 -1.375 C 17.007812 -1.726562 17.15625 -2.132812 17.15625 -2.59375 C 17.15625 -3.050781 17.113281 -3.484375 17.03125 -3.890625 L 17.796875 -4 C 17.910156 -3.59375 17.96875 -3.148438 17.96875 -2.671875 C 17.96875 -1.703125 17.675781 -0.929688 17.09375 -0.359375 C 16.507812 0.203125 15.742188 0.484375 14.796875 0.484375 C 13.859375 0.484375 13.09375 0.0976562 12.5 -0.671875 C 11.90625 -1.441406 11.609375 -2.59375 11.609375 -4.125 L 11.609375 -4.859375 C 11.148438 -3.023438 10.421875 -1.675781 9.421875 -0.8125 C 8.421875 0.0507812 7.265625 0.484375 5.953125 0.484375 C 4.648438 0.484375 3.601562 0.0703125 2.8125 -0.75 C 2.019531 -1.570312 1.625 -2.660156 1.625 -4.015625 C 1.625 -5.378906 2.253906 -6.59375 3.515625 -7.65625 C 4.785156 -8.726562 6.609375 -9.265625 8.984375 -9.265625 C 9.492188 -9.265625 10.351562 -9.195312 11.5625 -9.0625 Z M 6.875 -1.046875 C 8.007812 -1.046875 9.023438 -1.6875 9.921875 -2.96875 C 10.828125 -4.25 11.363281 -6.050781 11.53125 -8.375 C 11.257812 -8.40625 10.878906 -8.421875 10.390625 -8.421875 C 8.234375 -8.421875 6.691406 -7.96875 5.765625 -7.0625 C 4.835938 -6.15625 4.375 -5.109375 4.375 -3.921875 C 4.375 -3.140625 4.601562 -2.460938 5.0625 -1.890625 C 5.519531 -1.328125 6.125 -1.046875 6.875 -1.046875 Z M 6.875 -1.046875 "/></g></g></g><g fill="#000000" fill-opacity="1"><g transform="translate(245.856549, 208.999484)"><g><path d="M 3.6875 -1.296875 L 3.6875 -24.921875 C 3.6875 -25.296875 3.492188 -25.484375 3.109375 -25.484375 L 1.21875 -25.484375 L 1.21875 -26.21875 L 3.203125 -26.21875 C 4.816406 -26.21875 5.945312 -26.296875 6.59375 -26.453125 L 6.59375 -1.296875 C 6.59375 -0.921875 6.78125 -0.734375 7.15625 -0.734375 L 9.0625 -0.734375 L 9.0625 0 L 1.21875 0 L 1.21875 -0.734375 L 3.109375 -0.734375 C 3.492188 -0.734375 3.6875 -0.921875 3.6875 -1.296875 Z M 3.6875 -1.296875 "/></g></g></g></svg>